<svg xmlns="http://www.w3.org/2000/svg" viewBox="0 0 65.4 175.94"><defs><style>.cls-1{stroke:#fff;stroke-miterlimit:10;}</style></defs><title>men</title><g id="Слой_2" data-name="Слой 2"><g id="Слой_1-2" data-name="Слой 1"><path class="cls-1" d="M31.63,33.77c8.38,0,16.93-7.93,16.93-16.32S40.42.5,32,.5,15.32,9.25,15.32,17.65,23.25,33.77,31.63,33.77Zm33,48.62V57.2c0-8.23.54-7.44,0-12.59-2.1-6.3-6.29-8.4-10.48-8.4H35.32l-20.9,0c-4.19,0-6.92-.28-10,2.55C.15,43.55.57,44,.57,57.41V83C.57,89.67-.55,100,6.08,100c6.3,0,6.24-4.5,6.24-11.2,0-9.46,0-11.91,0-17.5,0-6.11-.35-7.15.88-7.15s1.22.08,1.22,6.57c0,6,0,90.74,0,95.64,0,4.2,2.23,8.69,8.54,8.69s8.93-3.68,8.93-7.88V123.08c0-4.2.14-6.23,1.17-6.23s.92,2,.92,6.23v44.08A9.11,9.11,0,0,0,43,175.44c4.19,0,8.05-5.4,8.05-8.19,0-16.79.09-91.51.09-96.79,0-2.86-.24-6.5.83-6.5s1,1,1,5.12V85.24c0,11,1.71,13.94,5.9,13.94C65.19,99.18,64.66,88.4,64.66,82.39Z" style="fill:black" /></g></g></svg>