<svg xmlns="http://www.w3.org/2000/svg" viewBox="0 0 82.77 175.78"><defs><style>.cls-1{stroke:#fff;stroke-miterlimit:10;}</style></defs><title>women</title><g id="Слой_2" data-name="Слой 2"><g id="Слой_1-2" data-name="Слой 1"><path class="cls-1" d="M42.47,33.86c8.47,0,17.09-7.95,17.09-16.37S51.35.5,42.88.5,26,9.28,26,17.69,34,33.86,42.47,33.86ZM80.06,82.62,71.6,57.36c-2.12-8.42-2.12-6.31-4.24-12.63S61,36.31,56.78,36.31H29.26c-4.23,0-10.58,2.11-12.7,8.42L12.32,57.36C10.21,63.67,6,76.3,3.86,82.62s-6.36,14.73,0,16.83,10.58-10.52,12.7-16.83L20.79,70c.45-1.15,1.3-4.81,2.94-4.2,1,.42,0,1.85-.82,4.2-1.64,6-14.82,46.3-14.82,46.3H25V166.8c0,4.21,1.45,8.48,7.21,8.48s7.6-4.27,7.6-8.48V122.6c0-4.21.14-6.25,1.19-6.25s.93,2,.93,6.25v44.2c0,2.62,1.32,8.35,7.54,8.35,5.63,0,7.28-5.55,7.28-8.35V116.29H73.71S62.23,76.34,60.59,69.89c-.63-3-1.45-4.07-.41-4.71,1.43-.39.69.18,3,6.91l4.23,12.63c1.47,4.35,4.24,14.73,8.47,14.73C82.18,99.45,84.3,95.24,80.06,82.62Z" style="fill:black" /></g></g></svg>